HIERARCHY
ROOT Hips
{
	OFFSET	0.000000	0.000000	0.000000
	CHANNELS 6 Xposition Yposition Zposition Zrotation Xrotation Yrotation
	JOINT LeftHip
	{
		OFFSET	4.740440	-3.195970	-0.322709
		CHANNELS 3 Zrotation Xrotation Yrotation
		JOINT LeftKnee
		{
			OFFSET	-1.605680	-15.592300	1.005510
			CHANNELS 3 Zrotation Xrotation Yrotation
			JOINT LeftAnkle
			{
				OFFSET	-0.632401	-16.421000	-1.413730
				CHANNELS 3 Zrotation Xrotation Yrotation
				End Site
				{
					OFFSET	0.008423	-2.933000	-1.776750
				}
			}
		}
	}
	JOINT RightHip
	{
		OFFSET	-4.740440	-3.195970	-0.322709
		CHANNELS 3 Zrotation Xrotation Yrotation
		JOINT RightKnee
		{
			OFFSET	1.605680	-15.592300	1.005510
			CHANNELS 3 Zrotation Xrotation Yrotation
			JOINT RightAnkle
			{
				OFFSET	0.632401	-16.421000	-1.413730
				CHANNELS 3 Zrotation Xrotation Yrotation
				End Site
				{
					OFFSET	-0.008423	-2.933000	-1.776750
				}
			}
		}
	}
	JOINT Chest
	{
		OFFSET	0.000000	3.468200	0.078401
		CHANNELS 3 Zrotation Xrotation Yrotation
		JOINT LeftCollar
		{
			OFFSET	3.857650	15.070700	-0.011583
			CHANNELS 3 Zrotation Xrotation Yrotation
			JOINT LeftShoulder
			{
				OFFSET	3.979720	-1.940530	-0.165223
				CHANNELS 3 Zrotation Xrotation Yrotation
				JOINT LeftElbow
				{
					OFFSET	0.615844	-10.986600	-0.673886
					CHANNELS 3 Zrotation Xrotation Yrotation
					JOINT LeftWrist
					{
						OFFSET	0.826843	-10.854500	1.034220
						CHANNELS 3 Zrotation Xrotation Yrotation
						End Site
						{
							OFFSET	-1.679080	-8.456540	0.936217
						}
					}
				}
			}
		}
		JOINT RightCollar
		{
			OFFSET	-3.857650	15.070700	-0.011583
			CHANNELS 3 Zrotation Xrotation Yrotation
			JOINT RightShoulder
			{
				OFFSET	-3.979720	-1.940530	-0.165223
				CHANNELS 3 Zrotation Xrotation Yrotation
				JOINT RightElbow
				{
					OFFSET	-0.615845	-10.986600	-0.673886
					CHANNELS 3 Zrotation Xrotation Yrotation
					JOINT RightWrist
					{
						OFFSET	-0.826843	-10.854500	1.034220
						CHANNELS 3 Zrotation Xrotation Yrotation
						End Site
						{
							OFFSET	1.679080	-8.456540	0.936217
						}
					}
				}
			}
		}
		JOINT Neck
		{
			OFFSET	0.000000	15.101400	0.055730
			CHANNELS 3 Zrotation Xrotation Yrotation
			JOINT Head
			{
				OFFSET	0.000000	4.185120	1.488260
				CHANNELS 3 Zrotation Xrotation Yrotation
				End Site
				{
					OFFSET	0.000000	7.773420	-0.106016
				}
			}
		}
	}
}
MOTION
Frames:     13
Frame Time: 0.016667
-3.558539	37.181557	-1.670802	-0.376433	-10.575839	-13.470600	10.391440	5.087380	6.068847	-7.451474	19.904251	11.266164	-5.202451	-12.580875	1.124094	-14.674975	-5.251182	-1.953676	2.284337	20.576899	-3.918800	11.367433	-3.960867	7.377018	-8.413733	9.373975	-11.901645	-11.293687	5.026814	-4.475645	34.797825	3.805300	30.761700	54.843166	-128.102539	52.566196	30.401735	-21.769876	-15.107532	-30.665525	-6.088575	-17.957096	-58.723747	9.090497	-6.943662	-79.860954	-101.753014	-65.487061	-26.712660	-28.060627	-12.755625	-8.808712	8.056148	-8.261716	8.385566	-6.265597	19.943359	
-3.603592	37.205944	-1.730734	-0.251754	-10.532007	-13.285900	10.194506	5.011024	6.156723	-7.408545	19.747168	11.197971	-5.155643	-12.370042	0.982940	-14.501764	-5.274400	-1.299776	2.206625	20.245739	-4.238389	11.228418	-3.503236	6.711665	-8.113968	9.756525	-11.652950	-11.155277	6.003841	-2.950315	32.500271	4.098272	30.428257	54.090851	-128.079788	50.622025	30.559380	-21.698244	-14.746047	-30.320131	-6.158060	-17.752645	-57.776169	9.355947	-7.356146	-81.620697	-101.041725	-67.030334	-26.602121	-28.101049	-12.855927	-8.832134	7.457922	-8.247170	8.724820	-6.105247	20.561317	
-3.432401	37.248508	-1.776747	-0.005312	-10.543818	-12.847654	9.679206	4.840497	6.334777	-7.286862	19.592962	10.806275	-4.765394	-12.186105	0.957169	-14.613444	-5.113484	-1.344788	1.400481	19.734406	-4.540340	11.776842	-2.715029	6.771300	-7.190073	10.936023	-10.891892	-11.392299	6.160785	-2.390927	30.157154	4.413023	29.961926	57.465061	-123.478088	53.129601	30.985714	-21.512457	-13.547037	-29.223730	-6.334286	-17.011509	-54.697800	10.042687	-8.450416	-89.283249	-98.860939	-73.862671	-26.274828	-28.214386	-13.029277	-9.179219	5.787627	-8.544787	8.546745	-5.818965	19.903374	
-3.384636	37.282887	-1.770904	0.037320	-10.553360	-12.704432	9.576242	4.755722	6.318616	-7.275674	19.611139	10.714933	-4.687944	-12.082333	0.945468	-14.709928	-4.839260	-1.221200	1.435292	19.261717	-4.940934	11.741630	-2.419987	6.815058	-6.800609	11.324905	-10.706903	-10.890453	6.897100	-0.785818	27.280018	4.686007	29.455963	57.053940	-123.493240	51.408302	31.068495	-21.444904	-13.143918	-28.857481	-6.391362	-16.715948	-53.715317	10.195657	-8.763199	-95.926788	-98.157455	-81.524261	-26.182819	-28.219402	-13.351455	-9.151999	5.415791	-8.657348	8.506254	-6.004485	20.220463	
-3.289256	37.308392	-1.831678	0.071147	-10.604904	-12.329838	9.421460	4.562921	6.066318	-7.392765	19.694113	10.671688	-4.401949	-11.990794	0.978060	-14.753601	-4.491951	-1.536217	1.168043	18.670252	-4.992666	11.838477	-1.998626	6.763200	-5.838409	12.427271	-10.229835	-11.018889	6.891748	-0.060262	24.830128	5.014427	28.875349	61.631729	-118.903046	55.153561	31.269051	-21.345629	-11.658221	-27.647558	-6.502600	-15.790636	-50.934097	10.658157	-9.782564	70.692932	-83.315720	86.679283	-26.020988	-28.150118	-13.597072	-9.315020	4.191479	-8.024158	8.052361	-6.301497	19.134354	
-3.268667	37.314651	-1.830060	0.023451	-10.665426	-12.246614	9.469736	4.560328	5.977274	-7.498013	19.825308	10.668580	-4.323531	-12.056294	0.992552	-14.702237	-4.299523	-1.581246	1.099840	18.486891	-4.852448	11.856702	-1.943641	6.568509	-5.515779	12.835395	-10.020627	-10.982158	7.031153	0.492149	23.726551	5.223073	28.616714	62.972221	-117.764580	56.113892	31.371603	-21.307524	-11.138493	-27.252199	-6.506846	-15.524996	-50.043831	10.827268	-10.139904	64.654778	-83.552231	80.600731	-25.833044	-28.069866	-13.613804	-9.333275	3.621975	-7.954183	7.890312	-6.243544	19.054211	
-3.199725	37.294781	-1.854390	-0.199674	-11.007568	-12.119977	9.669573	4.676403	5.630126	-7.609254	20.160089	10.719038	-4.299921	-12.125982	1.095433	-14.571608	-3.892503	-1.608207	1.025092	18.420963	-4.100132	11.875403	-2.021271	5.741732	-4.684635	14.128121	-9.275414	-10.833721	7.396267	2.075035	20.747013	5.983604	27.956865	67.725655	-114.504646	60.288105	31.453459	-20.831886	-9.888417	-26.008116	-6.429345	-14.894281	-47.440422	11.186222	-10.791441	44.457344	-83.817848	60.094749	-24.730360	-27.612238	-13.385320	-9.324492	2.469055	-7.906951	7.531923	-6.398448	19.062244	
-3.184238	37.289925	-1.855898	-0.294370	-11.156528	-12.111462	9.680064	4.714304	5.471039	-7.697237	20.343428	10.846146	-4.210765	-12.207052	1.139508	-14.505351	-3.708693	-1.534810	1.011514	18.390945	-3.998896	11.882034	-2.037702	5.569048	-4.396036	14.603361	-8.998620	-10.785107	7.449646	2.580348	19.796108	6.215901	27.668060	69.706879	-113.360916	62.119835	31.413105	-20.639875	-9.436567	-25.584227	-6.392499	-14.697034	-46.638287	11.280579	-10.871192	36.812668	-83.729523	52.317966	-24.308613	-27.493671	-13.323609	-9.324107	2.048799	-7.909811	7.398246	-6.402528	19.041540	
-3.165995	37.279301	-1.878008	-0.437106	-11.684400	-12.014662	9.647244	5.069798	5.140583	-7.661499	20.486811	10.995910	-4.202654	-12.204375	1.158537	-14.504786	-3.150070	-1.525441	1.014356	18.446356	-4.046212	11.907755	-2.076351	5.635114	-3.656355	16.025688	-8.253819	-10.491693	7.524013	4.079712	16.934015	6.825041	26.484739	77.416161	-109.832687	69.360657	31.482067	-20.212416	-8.096222	-24.433933	-6.353021	-14.140694	-44.181179	11.596295	-10.811278	15.760710	-82.664818	31.230541	-23.387867	-27.730740	-13.102434	-9.371264	0.532322	-7.937608	6.961434	-6.147862	19.009821	
-3.144644	37.278049	-1.867255	-0.438742	-11.823375	-11.929124	9.627121	5.171866	4.978412	-7.716244	20.500572	11.042012	-4.162916	-12.216611	1.185605	-14.626963	-2.953102	-1.640078	1.081851	18.450033	-4.087442	11.920033	-2.096165	5.749545	-3.454603	16.435822	-8.059632	-10.366168	7.523265	4.544125	16.031908	7.031781	26.092947	80.653969	-108.709610	72.480263	31.493279	-20.053894	-7.797879	-24.063593	-6.308930	-13.965545	-43.358601	11.679356	-10.775405	10.546599	-82.085823	26.059694	-23.146185	-27.865799	-12.883517	-9.320305	0.166048	-7.871732	6.770715	-6.203065	18.950989	
-3.169935	37.281525	-1.868502	-0.368414	-11.969779	-11.306546	9.535189	5.208095	4.483023	-7.648868	20.487347	10.889127	-4.137180	-12.157856	1.219207	-14.776088	-2.590932	-2.125351	1.206230	18.516413	-4.399661	11.872811	-2.184463	5.992645	-2.853710	17.431263	-7.788437	-9.983850	7.438449	5.627355	13.475493	7.620492	25.163557	93.349258	-105.686882	84.835793	31.153463	-19.466715	-7.224119	-23.023830	-6.161083	-13.635998	-40.799740	11.873166	-10.535258	-1.122144	-79.976463	14.670517	-22.149260	-28.013721	-11.942623	-8.978692	-0.799191	-7.564847	6.123878	-6.508739	18.727343	
-3.171748	37.290592	-1.851481	-0.254297	-11.839287	-10.807781	9.448532	4.990189	4.147992	-7.581112	20.452682	10.780926	-4.118454	-12.121189	1.219038	-14.930213	-2.509354	-2.458187	1.330108	18.468130	-4.579919	11.863475	-2.219727	6.006282	-2.670859	17.556780	-7.953298	-9.831063	7.421111	5.895833	12.661854	7.819335	24.926716	-81.300583	-75.134102	-89.923279	30.949244	-19.245934	-7.092459	-22.626724	-6.116437	-13.535686	-39.962322	11.950824	-10.445346	-3.851600	-79.170273	11.979371	-21.629009	-27.905766	-11.520257	-8.830862	-1.093460	-7.540475	5.935105	-6.560585	18.729738	
-3.184394	37.305294	-1.811242	-0.128455	-11.665625	-10.252467	9.413257	4.772856	4.056013	-7.391633	20.336195	10.353758	-4.152417	-12.001859	1.202119	-15.041253	-2.395648	-2.765721	1.422549	18.380075	-4.720013	11.849583	-2.297732	5.878518	-2.255240	18.098700	-7.528602	-9.233644	7.268935	6.631992	10.181030	8.301206	23.978655	-60.668556	-76.772636	-69.513077	30.407080	-18.602568	-6.453554	-21.303635	-6.021361	-13.200971	-37.616581	12.115669	-10.241366	-8.789292	-76.263329	6.823699	-20.045904	-27.644697	-10.612646	-8.416541	-1.859533	-7.806744	5.459961	-6.571263	18.962578	
